<svg width="78" height="76" viewBox="0 0 78 76" fill="none" xmlns="http://www.w3.org/2000/svg">
<path d="M55 26V2C55 1.44772 55.4477 1 56 1H57.5806H74C74.5523 1 75 1.44772 75 2V12.6667C75 13.219 74.5523 13.6667 74 13.6667H57.5806V26C57.5806 26.5523 57.1329 27 56.5806 27H56C55.4477 27 55 26.5523 55 26Z" fill="#F10E0E"/>
<path d="M57.5806 1H56C55.4477 1 55 1.44772 55 2V26C55 26.5523 55.4477 27 56 27H56.5806C57.1329 27 57.5806 26.5523 57.5806 26V13.6667M57.5806 1V13.6667M57.5806 1H74C74.5523 1 75 1.44772 75 2V12.6667C75 13.219 74.5523 13.6667 74 13.6667H57.5806" stroke="black" stroke-width="2"/>
<path d="M72.5 67.5H5V60H72.5V67.5Z" fill="#665208" stroke="black" stroke-width="2"/>
<path d="M65.9626 75H11.6261C6.98958 75 2.84907 72.0974 1.26799 67.7388C1.13768 67.3796 1.40376 67 1.7859 67H74.4559C74.7393 67 74.9535 67.2566 74.9029 67.5354C74.119 71.8576 70.3553 75 65.9626 75Z" fill="#E2CD13" stroke="black" stroke-width="2"/>
<path d="M74.5 59V58C74.5 56.8954 73.6046 56 72.5 56H6C4.89543 56 4 56.8954 4 58V59C4 60.1046 4.89543 61 6 61H51.1359C51.6873 61 52.2143 61.2277 52.5923 61.6293L60 69.5L68.4219 61.546C68.7932 61.1953 69.2845 61 69.7952 61H72.5C73.6046 61 74.5 60.1046 74.5 59Z" fill="#F9F92E" stroke="black" stroke-width="2"/>
<path d="M5 54V50H74V54C74 55.1046 73.1046 56 72 56H7C5.89543 56 5 55.1046 5 54Z" fill="#DF0808" stroke="black" stroke-width="2"/>
<path d="M5.88671 52.5746L4.63509 51.8919C3.62714 51.3421 3 50.2856 3 49.1375C3 47.4047 4.4047 46 6.13748 46H72.1485C73.0063 46 73.8213 46.3749 74.3796 47.0262C75.5136 48.3492 75.2538 50.3628 73.8211 51.3546L72.1938 52.4812C70.8324 53.4237 69.0768 53.5846 67.5667 52.905L63.4732 51.063C61.3069 50.0881 58.7945 50.275 56.7962 51.5596L56.5 51.75C54.3679 53.1206 51.6321 53.1206 49.5 51.75C47.3679 50.3794 44.6321 50.3794 42.5 51.75C40.3679 53.1206 37.6321 53.1206 35.5 51.75L35.385 51.6761C33.3024 50.3373 30.6505 50.2591 28.4927 51.4729L27.6791 51.9305C25.4156 53.2037 22.6338 53.1217 20.4492 51.7173C18.3185 50.3476 15.6147 50.2334 13.3761 51.4185L11.1308 52.6072C9.48804 53.4769 7.51855 53.4647 5.88671 52.5746Z" fill="#65C444" stroke="black" stroke-width="2"/>
<path d="M39 21C13.243 20.6156 2.20326 36.6726 1.08709 45.4687C1.01564 46.0318 1.47233 46.5 2.03998 46.5H5H73H75.6215C76.3015 46.5 76.786 45.8412 76.5652 45.1981C73.6353 36.6671 66.5344 21.411 39 21Z" fill="#E2CD13" stroke="black" stroke-width="2"/>
<path d="M20 31.5C20 32.0523 19.5523 32.5 19 32.5C18.4477 32.5 18 32.0523 18 31.5C18 30.9477 18.4477 30 19 30C19.5523 30 20 30.9477 20 31.5Z" fill="#FFFF8F"/>
<path d="M52.991 30.9665C53.2672 31.4448 53.1033 32.0564 52.625 32.3325C52.1467 32.6087 51.5351 32.4448 51.259 31.9665C50.9828 31.4882 50.8967 30.4436 51.375 30.1675C51.8533 29.8913 52.7149 30.4882 52.991 30.9665Z" fill="#FFFF8F"/>
<path d="M60.018 29.4119C60.0661 29.9621 59.6591 30.4471 59.1089 30.4953C58.5588 30.5434 58.0737 30.1364 58.0256 29.5862C57.9775 29.036 58.3409 28.0529 58.8911 28.0048C59.4412 27.9566 59.9698 28.8617 60.018 29.4119Z" fill="#FFFF8F"/>
<path d="M40.9267 28.7987C41.2817 29.2218 41.2266 29.8526 40.8035 30.2076C40.3804 30.5626 39.7497 30.5074 39.3947 30.0843C39.0397 29.6612 38.7734 28.6475 39.1965 28.2925C39.6196 27.9375 40.5717 28.3757 40.9267 28.7987Z" fill="#FFFF8F"/>
<path d="M35.8343 24.6446C36.2574 24.9996 36.3126 25.6304 35.9576 26.0535C35.6026 26.4766 34.9718 26.5317 34.5487 26.1767C34.1256 25.8217 33.6874 24.8696 34.0424 24.4465C34.3974 24.0234 35.4112 24.2896 35.8343 24.6446Z" fill="#FFFF8F"/>
<path d="M31.8542 31.8269C31.6653 32.3459 31.0915 32.6135 30.5725 32.4246C30.0535 32.2357 29.7859 31.6619 29.9748 31.1429C30.1637 30.6239 30.9085 29.8865 31.4275 30.0754C31.9465 30.2643 32.0431 31.308 31.8542 31.8269Z" fill="#FFFF8F"/>
<path d="M25.741 28.9665C25.4649 29.4448 24.8533 29.6087 24.375 29.3325C23.8967 29.0564 23.7328 28.4448 24.009 27.9665C24.2851 27.4882 25.1467 26.8913 25.625 27.1674C26.1033 27.4436 26.0172 28.4882 25.741 28.9665Z" fill="#FFFF8F"/>
<path d="M31.299 26.75C31.7773 27.0261 31.9412 27.6377 31.6651 28.116C31.3889 28.5943 30.7773 28.7582 30.299 28.4821C29.8207 28.2059 29.2239 27.3443 29.5 26.866C29.7761 26.3877 30.8207 26.4739 31.299 26.75Z" fill="#FFFF8F"/>
<path d="M48.299 27.75C48.7773 28.0261 48.9412 28.6377 48.6651 29.116C48.3889 29.5943 47.7773 29.7582 47.299 29.4821C46.8207 29.2059 46.2239 28.3443 46.5 27.866C46.7761 27.3877 47.8207 27.4739 48.299 27.75Z" fill="#FFFF8F"/>
<path d="M54.299 25.75C54.7773 26.0261 54.9412 26.6377 54.6651 27.116C54.3889 27.5943 53.7773 27.7582 53.299 27.4821C52.8207 27.2059 52.2239 26.3443 52.5 25.866C52.7761 25.3877 53.8207 25.4739 54.299 25.75Z" fill="#FFFF8F"/>
<path d="M42.299 24.75C42.7773 25.0261 42.9412 25.6377 42.6651 26.116C42.3889 26.5943 41.7773 26.7582 41.299 26.4821C40.8207 26.2059 40.2239 25.3443 40.5 24.866C40.7761 24.3877 41.8207 24.4739 42.299 24.75Z" fill="#FFFF8F"/>
</svg>
