<svg width="110" height="114" viewBox="0 0 110 114" fill="none" xmlns="http://www.w3.org/2000/svg">
<path d="M64.1562 41.7556L93.185 12.3856C93.2242 12.346 93.2881 12.346 93.3273 12.3856L94.5867 13.66C94.6238 13.6975 94.6254 13.7574 94.5903 13.7968L74.1146 36.7648C74.0794 36.8042 74.081 36.8641 74.1181 36.9016L75.1023 37.8974C75.1407 37.9363 75.2033 37.9371 75.2427 37.8992L97.3804 16.6268C97.4198 16.5889 97.4824 16.5897 97.5208 16.6286L98.505 17.6244C98.5421 17.662 98.5436 17.7219 98.5085 17.7613L78.0328 40.7292C77.9977 40.7686 77.9992 40.8285 78.0363 40.8661L79.0205 41.8619C79.0589 41.9008 79.1215 41.9016 79.1609 41.8637L101.299 20.5913C101.338 20.5534 101.401 20.5542 101.439 20.5931L102.362 21.5266C102.399 21.5641 102.4 21.6238 102.365 21.6633L81.9506 44.6937C81.9157 44.7331 81.9173 44.7929 81.9543 44.8304L82.9387 45.8263C82.9771 45.8652 83.0397 45.866 83.0791 45.8281L105.217 24.5558C105.256 24.5179 105.319 24.5187 105.357 24.5576L106.341 25.5526C106.378 25.5905 106.379 25.651 106.343 25.6903L78.3601 56.3713C77.9851 56.7824 77.3465 56.8083 76.9394 56.4289L73.0307 52.7857C72.621 52.4039 71.9777 52.4329 71.604 52.85L28.4225 101.049C28.0381 101.479 27.3715 101.495 26.9665 101.085L19.4923 93.5227C19.0919 93.1175 19.1103 92.4602 19.5328 92.0781L67.4538 48.7367C67.8479 48.3803 67.8944 47.7779 67.5596 47.3652L64.0908 43.0885C63.7696 42.6925 63.7978 42.1182 64.1562 41.7556Z" fill="#C4C4C4" stroke="black" stroke-width="2"/>
<path d="M86.3804 102.804L43.7683 50.6867C43.739 50.6509 43.691 50.6389 43.6493 50.6588C37.8078 53.4382 24.5101 55.901 17.4778 43.7303C10.4175 31.5114 11.4453 22.6515 12.8416 19.7489C13.1456 18.4408 14.6997 15.481 18.484 14.1066C23.2144 12.3886 28.6449 12.9828 41.6593 19.5488C54.558 26.0564 50.2456 43.8571 47.8137 46.5273C47.776 46.5686 47.7816 46.6273 47.8218 46.6662L96.0217 93.2805C96.4234 93.669 96.4288 94.3113 96.0336 94.7064L87.8617 102.878C87.4432 103.297 86.755 103.262 86.3804 102.804Z" fill="#C4C4C4" stroke="black" stroke-width="2"/>
</svg>
