<svg width="76" height="52" viewBox="0 0 76 52" fill="none" xmlns="http://www.w3.org/2000/svg">
<path d="M23 15.5C9.8 15.5 3.83333 26 2.5 32C5.33333 34 12.4 41.9 22 43.5C31.4652 45.0775 47.3787 37.3876 54.2135 34.1362C54.3918 34.0514 54.5983 34.0805 54.7336 34.2244C56.9357 36.5645 58.4608 44.5 63.5 44.5C65 44.5 66.3333 34.8333 63.5 32C66 28.1667 66 18.1 64.5 18C58.84 17.6227 56.2945 24.4831 54.7651 28.7596C54.6416 29.1047 54.2032 29.2048 53.9367 28.9532C48.5561 23.8726 35.7316 15.5 23 15.5Z" fill="#9ED0FF" stroke="black" stroke-width="2"/>
<path d="M29 27.5C29 21.9 24.3333 17.1667 22 15.5C16.3333 15.5 4.3 18.6 1.5 31C4.3 39.4 16.3333 42.8333 22 43.5C24.3333 40.5 29 33.1 29 27.5Z" fill="#87CAE7" stroke="black" stroke-width="2"/>
<path d="M11.5 25L16 29.5M16 25L11.5 29.5" stroke="black" stroke-width="2"/>
<path d="M37.1063 10.0237C32.119 9.85198 27.296 13.537 26.1818 15.5937C27.6776 15.9738 31.3436 16.3835 33.5 17C35.6564 17.6165 37.2069 12.9027 37.1063 10.0237Z" fill="#9ED0FF" stroke="black" stroke-width="2"/>
<path d="M34.0026 49.9787C29.1387 49.6967 24.7294 45.9504 23.8028 43.9977C25.2867 43.7858 28.7906 43.2703 30.9351 42.9032C33.0795 42.536 34.3204 47.3907 34.0026 49.9787Z" fill="#9ED0FF" stroke="black" stroke-width="2"/>
<path d="M33.5 21.5C35.6667 22 40.7 23.6 43.5 26" stroke="black" stroke-width="2"/>
<path d="M43.1179 41.0537C38.2789 41.6207 33.286 38.6969 32.0345 36.9348C33.459 36.4685 36.8202 35.3523 38.8683 34.6184C40.9164 33.8844 42.9814 38.4499 43.1179 41.0537Z" fill="#9ED0FF" stroke="black" stroke-width="2"/>
<path d="M30.7562 8.0962C17.5743 8.78703 12.1653 19.5849 11.1478 25.6465C14.082 27.4954 21.5524 35.0148 31.223 36.1102C40.7577 37.1902 56.247 28.6779 62.9023 25.0733C63.0759 24.9792 63.2836 24.9975 63.4263 25.1341C65.7478 27.3558 67.6862 35.2006 72.7184 34.9368C74.2164 34.8583 75.042 25.1351 72.0642 22.454C74.3602 18.4951 73.8333 8.44217 72.3302 8.42081C66.6581 8.34024 64.4752 15.3245 63.1717 19.6751C63.0665 20.0262 62.6339 20.1491 62.3546 19.9118C56.7155 15.1198 43.4703 7.42988 30.7562 8.0962Z" fill="#9ED0FF" stroke="black" stroke-width="2"/>
<path d="M37.3765 18.7831C37.0834 13.1908 32.1754 8.70818 29.758 7.16591C24.0991 7.46248 12.2445 11.188 10.0973 23.7176C13.3331 31.9595 25.5297 34.7584 31.2234 35.1275C33.3966 32.0095 37.6696 24.3754 37.3765 18.7831Z" fill="#87CAE7" stroke="black" stroke-width="2"/>
<path d="M19.8853 17.1208L24.6147 21.3792M24.3791 16.8853L20.1208 21.6147" stroke="black" stroke-width="2"/>
<path d="M45.542 1.92945C40.5525 1.84478 35.7945 5.61344 34.7163 7.68922C36.2186 8.0432 39.8912 8.38885 42.058 8.96762C44.2248 9.54638 45.6928 4.80624 45.542 1.92945Z" fill="#9ED0FF" stroke="black" stroke-width="2"/>
<path d="M41.8891 13.7648C44.079 14.1507 49.1891 15.4851 52.1109 17.7352" stroke="black" stroke-width="2"/>
</svg>
