<svg width="80" height="80" viewBox="0 0 80 80" fill="none" xmlns="http://www.w3.org/2000/svg">
<circle cx="40" cy="40" r="39" fill="#896A45" stroke="black" stroke-width="2"/>
<circle cx="40" cy="40" r="33" fill="#F2D662" stroke="black" stroke-width="2"/>
<circle cx="36" cy="63" r="5" fill="#CE5151" stroke="black" stroke-width="2"/>
<circle cx="48" cy="50" r="5" fill="#CE5151" stroke="black" stroke-width="2"/>
<circle cx="62" cy="46" r="5" fill="#CE5151" stroke="black" stroke-width="2"/>
<circle cx="39" cy="19" r="5" fill="#CE5151" stroke="black" stroke-width="2"/>
<circle cx="58" cy="27" r="5" fill="#CE5151" stroke="black" stroke-width="2"/>
<circle cx="22" cy="48" r="5" fill="#CE5151" stroke="black" stroke-width="2"/>
<circle cx="20" cy="27" r="5" fill="#CE5151" stroke="black" stroke-width="2"/>
<circle cx="36" cy="36" r="5" fill="#CE5151" stroke="black" stroke-width="2"/>
<path d="M22.6879 59.5675C22.8263 58.1404 23.7994 55.6926 26.5851 57.3175" stroke="#5F964B" stroke-width="1.5"/>
<path d="M10 40.546C10.8333 39.3794 12.9 37.746 14.5 40.546" stroke="#5F964B" stroke-width="1.5"/>
<path d="M57.0233 57.8114C56.9117 56.3821 57.445 53.8024 60.4705 54.9189" stroke="#C24297" stroke-opacity="0.9" stroke-width="1.5"/>
<path d="M63.9938 38.0769C63.8822 36.6475 64.4155 34.0679 67.441 35.1843" stroke="#5F964B" stroke-width="1.5"/>
<path d="M26.508 17.6899C26.7702 16.2804 27.9529 13.9267 30.5864 15.7881" stroke="#5F964B" stroke-width="1.5"/>
<path d="M50.1773 36.4171C49.366 35.235 48.5381 32.7344 51.7164 32.1885" stroke="#C24297" stroke-opacity="0.9" stroke-width="1.5"/>
<path d="M48 63.546C48.8333 62.3794 50.9 60.746 52.5 63.546" stroke="#5F964B" stroke-width="1.5"/>
<path d="M34.6206 53.1231C33.6163 52.0998 32.3667 49.7809 35.402 48.6914" stroke="#5F964B" stroke-width="1.5"/>
<path d="M23.7459 38.6229C22.3646 38.2389 20.1229 36.8555 22.2068 34.3943" stroke="#C24297" stroke-opacity="0.9" stroke-width="1.5"/>
<path d="M30.3959 28.9935C30.0378 27.6052 30.115 24.9722 33.2884 25.5463" stroke="#5F964B" stroke-width="1.5"/>
<path d="M48 17.546C48.8333 16.3794 50.9 14.746 52.5 17.546" stroke="#5F964B" stroke-width="1.5"/>
<circle cx="46" cy="65" r="1.5" stroke="#74094F" stroke-opacity="0.9"/>
<circle cx="28" cy="22" r="1.5" stroke="#74094F" stroke-opacity="0.9"/>
<circle cx="47" cy="27" r="1.5" stroke="#6D124E" stroke-opacity="0.9"/>
<circle cx="52" cy="40" r="1.5" stroke="#C24297" stroke-opacity="0.9"/>
<circle cx="27" cy="40" r="1.5" stroke="#C24297" stroke-opacity="0.9"/>
<circle cx="18" cy="58" r="1.5" stroke="#C24297" stroke-opacity="0.9"/>
<circle cx="39" cy="46" r="1.5" stroke="#690F4A" stroke-opacity="0.9"/>
</svg>
