<svg width="99" height="51" viewBox="0 0 99 51" fill="none" xmlns="http://www.w3.org/2000/svg">
<path d="M78 28.5C78 30.6606 76.6152 32.7617 74.0716 34.3727C71.5404 35.9758 67.9822 37 64 37C60.0178 37 56.4596 35.9758 53.9285 34.3727C51.3848 32.7617 50 30.6606 50 28.5C50 26.3394 51.3848 24.2383 53.9285 22.6273C56.4596 21.0242 60.0178 20 64 20C67.9822 20 71.5404 21.0242 74.0716 22.6273C76.6152 24.2383 78 26.3394 78 28.5Z" fill="#FFF61A" stroke="black" stroke-width="2"/>
<path d="M61 24.5C61 26.6606 59.6152 28.7617 57.0716 30.3727C54.5404 31.9758 50.9822 33 47 33C43.0178 33 39.4596 31.9758 36.9285 30.3727C34.3848 28.7617 33 26.6606 33 24.5C33 22.3394 34.3848 20.2383 36.9285 18.6273C39.4596 17.0242 43.0178 16 47 16C50.9822 16 54.5404 17.0242 57.0716 18.6273C59.6152 20.2383 61 22.3394 61 24.5Z" fill="#FFF61A" stroke="black" stroke-width="2"/>
<path d="M89 31.5C89 33.6606 87.6152 35.7617 85.0716 37.3727C82.5404 38.9758 78.9822 40 75 40C71.0178 40 67.4596 38.9758 64.9285 37.3727C62.3848 35.7617 61 33.6606 61 31.5C61 29.3394 62.3848 27.2383 64.9285 25.6273C67.4596 24.0242 71.0178 23 75 23C78.9822 23 82.5404 24.0242 85.0716 25.6273C87.6152 27.2383 89 29.3394 89 31.5Z" fill="#FFF61A" stroke="black" stroke-width="2"/>
<path d="M88 36C88 41.3412 82.6047 46 75.5 46C68.3953 46 63 41.3412 63 36C63 30.6588 68.3953 26 75.5 26C82.6047 26 88 30.6588 88 36Z" fill="#FFF61A" stroke="black" stroke-width="2"/>
<path d="M82 37.5C82 39.1857 81.0913 40.7881 79.4711 42.0033C77.8505 43.2187 75.566 44 73 44C70.434 44 68.1495 43.2187 66.5289 42.0033C64.9087 40.7881 64 39.1857 64 37.5C64 35.8143 64.9087 34.2119 66.5289 32.9967C68.1495 31.7813 70.434 31 73 31C75.566 31 77.8505 31.7813 79.4711 32.9967C81.0913 34.2119 82 35.8143 82 37.5Z" fill="#FFF61A" stroke="black" stroke-width="2"/>
<path d="M64 29.5C64 31.6606 62.6152 33.7617 60.0716 35.3727C57.5404 36.9758 53.9822 38 50 38C46.0178 38 42.4596 36.9758 39.9285 35.3727C37.3848 33.7617 36 31.6606 36 29.5C36 27.3394 37.3848 25.2383 39.9285 23.6273C42.4596 22.0242 46.0178 21 50 21C53.9822 21 57.5404 22.0242 60.0716 23.6273C62.6152 25.2383 64 27.3394 64 29.5Z" fill="#FFF61A" stroke="black" stroke-width="2"/>
<path d="M73 33.5C73 35.7099 71.7285 37.8107 69.4704 39.3997C67.2152 40.9868 64.0468 42 60.5 42C56.9532 42 53.7848 40.9868 51.5296 39.3997C49.2715 37.8107 48 35.7099 48 33.5C48 31.2901 49.2715 29.1893 51.5296 27.6003C53.7848 26.0132 56.9532 25 60.5 25C64.0468 25 67.2152 26.0132 69.4704 27.6003C71.7285 29.1893 73 31.2901 73 33.5Z" fill="#FFF61A" stroke="black" stroke-width="2"/>
<path d="M72 35.5C72 37.1857 71.0913 38.7881 69.4711 40.0033C67.8505 41.2187 65.566 42 63 42C60.434 42 58.1495 41.2187 56.5289 40.0033C54.9087 38.7881 54 37.1857 54 35.5C54 33.8143 54.9087 32.2119 56.5289 30.9967C58.1495 29.7813 60.434 29 63 29C65.566 29 67.8505 29.7813 69.4711 30.9967C71.0913 32.2119 72 33.8143 72 35.5Z" fill="#FFF61A" stroke="black" stroke-width="2"/>
<path d="M69 39.5C69 41.9102 67.3665 44.2631 64.3599 46.0671C61.3731 47.8592 57.1824 49 52.5 49C47.8176 49 43.6269 47.8592 40.6401 46.0671C37.6335 44.2631 36 41.9102 36 39.5C36 37.0898 37.6335 34.7369 40.6401 32.9329C43.6269 31.1408 47.8176 30 52.5 30C57.1824 30 61.3731 31.1408 64.3599 32.9329C67.3665 34.7369 69 37.0898 69 39.5Z" fill="#FFF61A" stroke="black" stroke-width="2"/>
<path d="M66 39.5C66 41.1223 64.9909 42.723 63.0855 43.9657C61.1892 45.2024 58.5101 46 55.5 46C52.4899 46 49.8108 45.2024 47.9145 43.9657C46.0091 42.723 45 41.1223 45 39.5C45 37.8777 46.0091 36.277 47.9145 35.0343C49.8108 33.7976 52.4899 33 55.5 33C58.5101 33 61.1892 33.7976 63.0855 35.0343C64.9909 36.277 66 37.8777 66 39.5Z" fill="#FFF61A" stroke="black" stroke-width="2"/>
<path d="M58 37.5C58 40.2578 56.3974 42.8585 53.5955 44.8113C50.797 46.7618 46.8773 48 42.5 48C38.1227 48 34.203 46.7618 31.4045 44.8113C28.6026 42.8585 27 40.2578 27 37.5C27 34.7422 28.6026 32.1415 31.4045 30.1887C34.203 28.2382 38.1227 27 42.5 27C46.8773 27 50.797 28.2382 53.5955 30.1887C56.3974 32.1415 58 34.7422 58 37.5Z" fill="#FFF61A" stroke="black" stroke-width="2"/>
<path d="M57 39.5C57 41.6606 55.6152 43.7617 53.0716 45.3727C50.5404 46.9758 46.9822 48 43 48C39.0178 48 35.4596 46.9758 32.9285 45.3727C30.3848 43.7617 29 41.6606 29 39.5C29 37.3394 30.3848 35.2383 32.9285 33.6273C35.4596 32.0242 39.0178 31 43 31C46.9822 31 50.5404 32.0242 53.0716 33.6273C55.6152 35.2383 57 37.3394 57 39.5Z" fill="#FFF61A" stroke="black" stroke-width="2"/>
<path d="M48 25.5C48 27.6606 46.6152 29.7617 44.0716 31.3727C41.5404 32.9758 37.9822 34 34 34C30.0178 34 26.4596 32.9758 23.9285 31.3727C21.3848 29.7617 20 27.6606 20 25.5C20 23.3394 21.3848 21.2383 23.9285 19.6273C26.4596 18.0242 30.0178 17 34 17C37.9822 17 41.5404 18.0242 44.0716 19.6273C46.6152 21.2383 48 23.3394 48 25.5Z" fill="#FFF61A" stroke="black" stroke-width="2"/>
<path d="M58 34.5C58 36.6606 56.6152 38.7617 54.0716 40.3727C51.5404 41.9758 47.9822 43 44 43C40.0178 43 36.4596 41.9758 33.9285 40.3727C31.3848 38.7617 30 36.6606 30 34.5C30 32.3394 31.3848 30.2383 33.9285 28.6273C36.4596 27.0242 40.0178 26 44 26C47.9822 26 51.5404 27.0242 54.0716 28.6273C56.6152 30.2383 58 32.3394 58 34.5Z" fill="#FFF61A" stroke="black" stroke-width="2"/>
<path d="M52 32.5C52 34.6606 50.6152 36.7617 48.0716 38.3727C45.5404 39.9758 41.9822 41 38 41C34.0178 41 30.4596 39.9758 27.9285 38.3727C25.3848 36.7617 24 34.6606 24 32.5C24 30.3394 25.3848 28.2383 27.9285 26.6273C30.4596 25.0242 34.0178 24 38 24C41.9822 24 45.5404 25.0242 48.0716 26.6273C50.6152 28.2383 52 30.3394 52 32.5Z" fill="#FFF61A" stroke="black" stroke-width="2"/>
<path d="M50 36.5C50 38.6606 48.6152 40.7617 46.0716 42.3727C43.5404 43.9758 39.9822 45 36 45C32.0178 45 28.4596 43.9758 25.9285 42.3727C23.3848 40.7617 22 38.6606 22 36.5C22 34.3394 23.3848 32.2383 25.9285 30.6273C28.4596 29.0242 32.0178 28 36 28C39.9822 28 43.5404 29.0242 46.0716 30.6273C48.6152 32.2383 50 34.3394 50 36.5Z" fill="#FFF61A" stroke="black" stroke-width="2"/>
<path d="M41 29.5C41 31.9836 39.5632 34.3344 37.0331 36.1054C34.5063 37.8742 30.9621 39 27 39C23.0379 39 19.4937 37.8742 16.9669 36.1054C14.4368 34.3344 13 31.9836 13 29.5C13 27.0164 14.4368 24.6656 16.9669 22.8946C19.4937 21.1258 23.0379 20 27 20C30.9621 20 34.5063 21.1258 37.0331 22.8946C39.5632 24.6656 41 27.0164 41 29.5Z" fill="#FFF61A" stroke="black" stroke-width="2"/>
<path d="M41 35.5C41 37.9836 39.5632 40.3344 37.0331 42.1054C34.5063 43.8742 30.9621 45 27 45C23.0379 45 19.4937 43.8742 16.9669 42.1054C14.4368 40.3344 13 37.9836 13 35.5C13 33.0164 14.4368 30.6656 16.9669 28.8946C19.4937 27.1258 23.0379 26 27 26C30.9621 26 34.5063 27.1258 37.0331 28.8946C39.5632 30.6656 41 33.0164 41 35.5Z" fill="#FFF61A" stroke="black" stroke-width="2"/>
<path d="M48 38.5C48 40.6606 46.6152 42.7617 44.0716 44.3727C41.5404 45.9758 37.9822 47 34 47C30.0178 47 26.4596 45.9758 23.9285 44.3727C21.3848 42.7617 20 40.6606 20 38.5C20 36.3394 21.3848 34.2383 23.9285 32.6273C26.4596 31.0242 30.0178 30 34 30C37.9822 30 41.5404 31.0242 44.0716 32.6273C46.6152 34.2383 48 36.3394 48 38.5Z" fill="#FFF61A" stroke="black" stroke-width="2"/>
<path d="M63 41.5C63 43.3292 61.6817 45.1851 59.1136 46.6404C56.5753 48.0787 53.0017 49 49 49C44.9983 49 41.4247 48.0787 38.8864 46.6404C36.3183 45.1851 35 43.3292 35 41.5C35 39.6708 36.3183 37.8149 38.8864 36.3596C41.4247 34.9213 44.9983 34 49 34C53.0017 34 56.5753 34.9213 59.1136 36.3596C61.6817 37.8149 63 39.6708 63 41.5Z" fill="#FFF61A" stroke="black" stroke-width="2"/>
<path d="M38 37C38 38.6954 36.7883 40.4258 34.4034 41.7886C32.0467 43.1353 28.7242 44 25 44C21.2758 44 17.9533 43.1353 15.5966 41.7886C13.2117 40.4258 12 38.6954 12 37C12 35.3046 13.2117 33.5742 15.5966 32.2114C17.9533 30.8647 21.2758 30 25 30C28.7242 30 32.0467 30.8647 34.4034 32.2114C36.7883 33.5742 38 35.3046 38 37Z" fill="#FFF61A" stroke="black" stroke-width="2"/>
<path d="M29 35.5C29 37.4555 27.9298 39.3075 26.0373 40.7062C24.1451 42.1048 21.4836 43 18.5 43C15.5164 43 12.8549 42.1048 10.9627 40.7062C9.07022 39.3075 8 37.4555 8 35.5C8 33.5445 9.07022 31.6925 10.9627 30.2938C12.8549 28.8952 15.5164 28 18.5 28C21.4836 28 24.1451 28.8952 26.0373 30.2938C27.9298 31.6925 29 33.5445 29 35.5Z" fill="#FFF61A" stroke="black" stroke-width="2"/>
<mask id="path-23-inside-1" fill="white">
<path fill-rule="evenodd" clip-rule="evenodd" d="M99 30.5C99 41.8218 76.8381 51 49.5 51C22.1619 51 0 41.8218 0 30.5C0 19.1782 22.1619 10 49.5 10C76.8381 10 99 19.1782 99 30.5ZM51.5 38C71.6584 38 85.5 33.0751 85.5 27C85.5 20.9249 71.6584 16 51.5 16C31.3416 16 15 20.9249 15 27C15 33.0751 31.3416 38 51.5 38Z"/>
<path fill-rule="evenodd" clip-rule="evenodd" d="M49.5 51C76.8381 51 99 41.8218 99 30.5C99 19.1782 76.8381 10 49.5 10C22.1619 10 0 19.1782 0 30.5C0 41.8218 22.1619 51 49.5 51ZM51.5 38C71.6584 38 85.5 33.0751 85.5 27C85.5 20.9249 71.6584 16 51.5 16C31.3416 16 15 20.9249 15 27C15 33.0751 31.3416 38 51.5 38Z"/>
</mask>
<path fill-rule="evenodd" clip-rule="evenodd" d="M99 30.5C99 41.8218 76.8381 51 49.5 51C22.1619 51 0 41.8218 0 30.5C0 19.1782 22.1619 10 49.5 10C76.8381 10 99 19.1782 99 30.5ZM51.5 38C71.6584 38 85.5 33.0751 85.5 27C85.5 20.9249 71.6584 16 51.5 16C31.3416 16 15 20.9249 15 27C15 33.0751 31.3416 38 51.5 38Z" fill="white"/>
<path fill-rule="evenodd" clip-rule="evenodd" d="M49.5 51C76.8381 51 99 41.8218 99 30.5C99 19.1782 76.8381 10 49.5 10C22.1619 10 0 19.1782 0 30.5C0 41.8218 22.1619 51 49.5 51ZM51.5 38C71.6584 38 85.5 33.0751 85.5 27C85.5 20.9249 71.6584 16 51.5 16C31.3416 16 15 20.9249 15 27C15 33.0751 31.3416 38 51.5 38Z" fill="white"/>
<path d="M97 30.5C97 32.6293 95.9665 34.8419 93.7108 37.0505C91.4485 39.2656 88.0715 41.3526 83.7365 43.1479C75.0756 46.7347 62.9723 49 49.5 49V53C63.3658 53 76.0125 50.6762 85.267 46.8435C89.8898 44.929 93.7619 42.5986 96.5093 39.9086C99.2633 37.212 101 34.0316 101 30.5H97ZM49.5 49C36.0277 49 23.9244 46.7347 15.2635 43.1479C10.9285 41.3526 7.55151 39.2656 5.28919 37.0505C3.03354 34.8419 2 32.6293 2 30.5H-2C-2 34.0316 -0.263303 37.212 2.49073 39.9086C5.23807 42.5986 9.11021 44.929 13.733 46.8435C22.9876 50.6762 35.6342 53 49.5 53V49ZM2 30.5C2 28.3707 3.03354 26.1581 5.28919 23.9495C7.55151 21.7344 10.9285 19.6474 15.2635 17.8521C23.9244 14.2653 36.0277 12 49.5 12V8C35.6342 8 22.9876 10.3238 13.733 14.1565C9.11021 16.071 5.23807 18.4014 2.49073 21.0914C-0.263303 23.788 -2 26.9684 -2 30.5H2ZM49.5 12C62.9723 12 75.0756 14.2653 83.7365 17.8521C88.0715 19.6474 91.4485 21.7344 93.7108 23.9495C95.9665 26.1581 97 28.3707 97 30.5H101C101 26.9684 99.2633 23.788 96.5093 21.0914C93.7619 18.4014 89.8898 16.071 85.267 14.1565C76.0125 10.3238 63.3658 8 49.5 8V12ZM83.5 27C83.5 27.6897 83.1167 28.6232 81.7578 29.7322C80.404 30.837 78.2939 31.9265 75.4277 32.8805C69.7142 34.7824 61.4428 36 51.5 36V40C61.7156 40 70.4442 38.7552 76.6911 36.6758C79.8051 35.6392 82.4153 34.3585 84.2868 32.8312C86.1531 31.3081 87.5 29.3478 87.5 27H83.5ZM51.5 36C41.56 36 32.6386 34.7832 26.2677 32.8632C23.0696 31.8994 20.6273 30.7917 19.0289 29.6529C17.3802 28.4781 17 27.5533 17 27H13C13 29.4842 14.6625 31.4533 16.7078 32.9105C18.8034 34.4037 21.7064 35.6663 25.1135 36.6931C31.953 38.7543 41.2816 40 51.5 40V36ZM17 27C17 26.4467 17.3802 25.5219 19.0289 24.3471C20.6273 23.2083 23.0696 22.1006 26.2677 21.1368C32.6386 19.2168 41.56 18 51.5 18V14C41.2816 14 31.953 15.2457 25.1135 17.3069C21.7064 18.3337 18.8034 19.5963 16.7078 21.0895C14.6625 22.5467 13 24.5158 13 27H17ZM51.5 18C61.4428 18 69.7142 19.2176 75.4277 21.1195C78.2939 22.0735 80.404 23.163 81.7578 24.2678C83.1167 25.3768 83.5 26.3103 83.5 27H87.5C87.5 24.6522 86.1531 22.6919 84.2868 21.1688C82.4153 19.6415 79.8051 18.3608 76.6911 17.3242C70.4442 15.2448 61.7156 14 51.5 14V18Z" fill="black" mask="url(#path-23-inside-1)"/>
<path d="M26.6842 15.1144C20.2 15.5734 18.193 19.8961 18 22C19.7368 21.0437 24.1368 18.7867 27.8421 17.4096C31.5474 16.0325 37.4912 16.0707 40 16.262C38.2632 15.6882 33.1684 14.6554 26.6842 15.1144Z" fill="#FFF61A" stroke="black" stroke-width="2"/>
<path d="M78.7271 22.0061C77.9078 21.0723 76.3293 19.6725 73.5 17.7863C68.7 14.5863 63.8333 14.7863 62 15.2863C66.4 16.4863 70.8333 20.453 72.5 22.2863C74.4891 22.0021 76.596 22.3741 78.0678 22.7926C78.7583 22.9889 79.2005 22.5458 78.7271 22.0061Z" fill="#FFF61A" stroke="black" stroke-width="2"/>
<path d="M78.5 16.4472C81.5567 17.8366 83.6643 20.5935 84.8898 22.8737C85.335 23.7021 84.3999 24.4833 83.5472 24.0863C82.1825 23.451 80.5902 22.9029 79.2355 22.8929C78.7965 22.8896 78.3711 22.676 78.1311 22.3084C76.1926 19.338 71.3333 16.5361 69 15.4472C70.3333 14.9472 74.1 14.4472 78.5 16.4472Z" fill="#FFF61A" stroke="black" stroke-width="2"/>
<path d="M63.5 10.5C60.3 10.5 56.8333 12.8333 55.5 14C57 14 60.4 14.2 62 15C62.5 15 66 14 69.5 15.5C71.1 13.9 73.8333 14.1667 75 14.5C69 10.5 67.5 10.5 63.5 10.5Z" fill="#FFF61A" stroke="black" stroke-width="2"/>
<path d="M30 10C26 10.4 22.3333 14.5 21.5 16.5C23 15.6667 26.9 14.2 30.5 15C32.5 12.2 38 11.8333 40.5 12C38.3333 11.1667 34 9.6 30 10Z" fill="#FFF61A" stroke="black" stroke-width="2"/>
<path d="M46.9412 1.04612C37.6514 1.74403 28.9739 8.87106 25.3679 13.9986C24.3929 15.3849 24.6637 17.1985 25.7279 18.5177C27.2862 20.4494 30.095 20.799 32.0793 19.3082L32.3711 19.089C34.1158 17.7783 36.5101 17.755 38.2799 19.0314L39.5704 19.9621C42.0819 21.7734 45.4742 21.7609 47.9723 19.9312L48.6549 19.4312C51.2087 17.5606 54.6035 17.3035 57.4098 18.7682L59.9444 20.0911C62.2104 21.2738 64.914 21.2624 67.1699 20.0606C71.6405 17.6791 72.5175 11.8218 68.365 8.92102C62.2154 4.62512 53.9821 0.517164 46.9412 1.04612Z" fill="#A82323" stroke="black" stroke-width="2"/>
</svg>
